:FULLY-SPECIFIED
:FORCE-ALL-JOINTS-BE-3DOF
:DEGREES
510
root 5.48869 16.4548 -5.53818 -139.711 88.0354 -145.517
lfemur -24.7206 -17.1978 -22.0824
ltibia 47.5784 0 0
lfoot -25.5937 -6.56885 0
ltoes 13.9613 0 0
rfemur -58.3407 6.09554 8.27695
rtibia 68.4955 0 0
rfoot 7.93836 10.6239 0
rtoes -16.5956 0 0
lowerback 6.63396 -0.344638 -1.54911
upperback 0.654554 -0.489856 1.64599
thorax -3.01006 -0.211356 2.61201
lowerneck -8.92626 -10.4891 -2.45391
upperneck 9.95836 -14.0249 2.19716
head 4.77458 -6.83669 0.0911508
lclavicle -5.8372e-16 -7.71268e-15 0
lhumerus -47.2883 -33.662 115.255
lradius 56.2217 0 0
lwrist 5.74584 0 0
lhand 7.00573 0.497263 0
lfingers 7.12502 0 0
lthumb 32.2673 27.503 0
rclavicle -5.8372e-16 -7.71268e-15 0
rhumerus -32.2133 42.9024 -90.7229
rradius 100.246 0 0
rwrist 15.7738 0 0
rhand 2.10035 -13.622 0
rfingers 7.12502 0 0
rthumb 27.589 -761.474 0
511
root 5.49563 16.4541 -5.5188 -139.374 88.0251 -145.176
lfemur -24.6527 -16.9542 -22.0541
ltibia 47.5571 0 0
lfoot -25.6491 -6.398 0
ltoes 13.8346 0 0
rfemur -58.2216 5.94043 8.34186
rtibia 68.3656 0 0
rfoot 7.93666 10.606 0
rtoes -16.6465 0 0
lowerback 6.61591 -0.35245 -1.5858
upperback 0.666784 -0.501561 1.65045
thorax -2.98537 -0.217806 2.63764
lowerneck -8.89515 -10.5128 -2.46662
upperneck 9.98378 -14.0619 2.23646
head 4.78303 -6.8525 0.102347
lclavicle -6.00752e-16 -7.65381e-15 0
lhumerus -47.0848 -33.6058 114.987
lradius 56.1961 0 0
lwrist 5.91559 0 0
lhand 6.7712 0.470761 0
lfingers 7.12502 0 0
lthumb 32.0422 27.5019 0
rclavicle -6.00752e-16 -7.65381e-15 0
rhumerus -31.6987 42.6742 -90.5593
rradius 100.552 0 0
rwrist 15.224 0 0
rhand 1.85147 -13.6723 0
rfingers 7.12502 0 0
rthumb 27.3494 -761.542 0
512
root 5.5028 16.4534 -5.49875 -139.013 88.0148 -144.809
lfemur -24.5825 -16.7022 -22.0248
ltibia 47.5349 0 0
lfoot -25.7063 -6.2211 0
ltoes 13.7037 0 0
rfemur -58.0982 5.77977 8.40917
rtibia 68.2316 0 0
rfoot 7.93495 10.5877 0
rtoes -16.6991 0 0
lowerback 6.59712 -0.360552 -1.62378
upperback 0.679415 -0.513701 1.65504
thorax -2.95978 -0.224496 2.66415
lowerneck -8.86293 -10.5372 -2.47972
upperneck 10.01 -14.1 2.27711
head 4.79173 -6.86883 0.113932
lclavicle -6.166e-16 -7.589e-15 0
lhumerus -46.8743 -33.5474 114.71
lradius 56.1695 0 0
lwrist 6.09125 0 0
lhand 6.52837 0.443344 0
lfingers 7.12502 0 0
lthumb 31.8091 27.5008 0
rclavicle -6.166e-16 -7.589e-15 0
rhumerus -31.1668 42.4373 -90.3906
rradius 100.869 0 0
rwrist 14.6558 0 0
rhand 1.59331 -13.7247 0
rfingers 7.12502 0 0
rthumb 27.1009 -761.613 0
513
root 5.51019 16.4527 -5.47805 -138.627 88.0045 -144.419
lfemur -24.51 -16.4419 -21.9945
ltibia 47.5117 0 0
lfoot -25.7653 -6.03834 0
ltoes 13.5687 0 0
rfemur -57.9707 5.61374 8.47881
rtibia 68.0937 0 0
rfoot 7.93322 10.5688 0
rtoes -16.7533 0 0
lowerback 6.5776 -0.368938 -1.66303
upperback 0.692435 -0.526266 1.65974
thorax -2.93332 -0.231419 2.69149
lowerneck -8.82965 -10.5624 -2.49319
upperneck 10.0369 -14.1393 2.31909
head 4.80067 -6.88564 0.125895
lclavicle -6.31326e-16 -7.51839e-15 0
lhumerus -46.6568 -33.4871 114.424
lradius 56.142 0 0
lwrist 6.27266 0 0
lhand 6.27748 0.415036 0
lfingers 7.12502 0 0
lthumb 31.5683 27.4997 0
rclavicle -6.31326e-16 -7.51839e-15 0
rhumerus -30.6179 42.1921 -90.2168
rradius 101.196 0 0
rwrist 14.0697 0 0
rhand 1.32614 -13.7789 0
rfingers 7.12502 0 0
rthumb 26.8438 -761.687 0
514
root 5.5178 16.452 -5.45673 -138.219 87.9942 -144.005
lfemur -24.4354 -16.1736 -21.9634
ltibia 47.4877 0 0
lfoot -25.8261 -5.84987 0
ltoes 13.4298 0 0
rfemur -57.8393 5.44247 8.55071
rtibia 67.952 0 0
rfoot 7.93148 10.5495 0
rtoes -16.8091 0 0
lowerback 6.55737 -0.377598 -1.7035
upperback 0.705833 -0.539243 1.66455
thorax -2.906 -0.238568 2.71966
lowerneck -8.79532 -10.5883 -2.50702
upperneck 10.0646 -14.1798 2.36234
head 4.80985 -6.90294 0.138227
lclavicle -6.4499e-16 -7.44215e-15 0
lhumerus -46.4327 -33.4247 114.128
lradius 56.1137 0 0
lwrist 6.45964 0 0
lhand 6.01875 0.385865 0
lfingers 7.12502 0 0
lthumb 31.3199 27.4986 0
rclavicle -6.4499e-16 -7.44215e-15 0
rhumerus -30.0525 41.9387 -90.0382
rradius 101.532 0 0
rwrist 13.4662 0 0
rhand 1.05019 -13.8351 0
rfingers 7.12502 0 0
rthumb 26.5781 -761.763 0
515
root 5.52562 16.4512 -5.4348 -137.787 87.9839 -143.569
lfemur -24.3586 -15.8975 -21.9313
ltibia 47.4629 0 0
lfoot -25.8887 -5.65586 0
ltoes 13.2871 0 0
rfemur -57.7039 5.26613 8.62482
rtibia 67.8066 0 0
rfoot 7.92973 10.5297 0
rtoes -16.8664 0 0
lowerback 6.53646 -0.386526 -1.74515
upperback 0.719597 -0.55262 1.66947
thorax -2.87785 -0.245938 2.74862
lowerneck -8.75998 -10.6149 -2.52121
upperneck 10.0929 -14.2213 2.40684
head 4.81925 -6.92071 0.150915
lclavicle -6.57652e-16 -7.36042e-15 0
lhumerus -46.202 -33.3604 113.824
lradius 56.0845 0 0
lwrist 6.65204 0 0
lhand 5.75242 0.355854 0
lfingers 7.12502 0 0
lthumb 31.0642 27.4974 0
rclavicle -6.57652e-16 -7.36042e-15 0
rhumerus -29.4711 41.6773 -89.8547
rradius 101.877 0 0
rwrist 12.8457 0 0
rhand 0.765729 -13.8931 0
rfingers 7.12502 0 0
rthumb 26.3043 -761.842 0
516
root 5.53363 16.4504 -5.41228 -137.334 87.9736 -143.11
lfemur -24.2797 -15.6139 -21.8983
ltibia 47.4372 0 0
lfoot -25.9529 -5.45648 0
ltoes 13.1407 0 0
rfemur -57.5648 5.08487 8.70106
rtibia 67.6575 0 0
rfoot 7.92796 10.5095 0
rtoes -16.9253 0 0
lowerback 6.51487 -0.395713 -1.78797
upperback 0.733717 -0.566386 1.6745
thorax -2.8489 -0.253521 2.77835
lowerneck -8.72366 -10.6422 -2.53574
upperneck 10.122 -14.264 2.45254
head 4.82888 -6.93892 0.163949
lclavicle -6.69374e-16 -7.27335e-15 0
lhumerus -45.965 -33.2942 113.512
lradius 56.0544 0 0
lwrist 6.8497 0 0
lhand 5.47871 0.325029 0
lfingers 7.12502 0 0
lthumb 30.8015 27.4963 0
rclavicle -6.69374e-16 -7.27335e-15 0
rhumerus -28.8742 41.4083 -89.6667
rradius 102.23 0 0
rwrist 12.209 0 0
rhand 0.47301 -13.9529 0
rfingers 7.12502 0 0
rthumb 26.0226 -761.923 0
